<svg width="60" height="61" viewBox="0 0 60 61" fill="none" xmlns="http://www.w3.org/2000/svg">
<path fill-rule="evenodd" clip-rule="evenodd" d="M36.4304 49.6241C35.8616 49.6241 35.4005 49.1631 35.4005 48.5941C35.4005 48.0252 35.8615 47.5641 36.4304 47.5641C37.7278 47.5641 38.7834 46.5085 38.7834 45.211C38.7834 43.9136 37.7278 42.8582 36.4304 42.8582L27.8716 42.8731C27.871 42.8731 27.8721 42.8731 27.8716 42.8731C27.706 42.8731 27.5413 42.8333 27.3946 42.757L19.9254 38.8725L11.9205 38.8723C11.3517 38.8723 10.8906 38.4113 10.8906 37.8424C10.8906 37.2736 11.3517 36.8124 11.9205 36.8124L20.1773 36.8125C20.3428 36.8125 20.5057 36.8524 20.6525 36.9286L28.1208 40.8126L36.4287 40.7982C38.8637 40.7982 40.8433 42.7776 40.8433 45.2109C40.8432 47.6444 38.8637 49.6241 36.4304 49.6241Z" fill="url(#paint0_linear_32171_22957)"/>
<path fill-rule="evenodd" clip-rule="evenodd" d="M33.5339 59.4139H28.6887C28.5619 59.4139 28.4362 59.3906 28.3179 59.3449L15.4564 54.3825H12.0143C11.4454 54.3825 10.9844 53.9215 10.9844 53.3526C10.9844 52.7836 11.4454 52.3226 12.0143 52.3226H15.6483C15.7749 52.3226 15.9007 52.346 16.0191 52.3916L28.8805 57.354H33.3123C34.2932 56.9242 36.319 56.1892 38.8341 55.2768C44.7989 53.1124 53.8129 49.8419 56.9657 47.6969C57.8902 47.0682 58.2062 45.786 57.6704 44.8386C57.0812 43.7964 55.3609 43.1853 52.302 44.5957C52.2739 44.6087 52.2454 44.6203 52.216 44.6307L38.3535 49.5649C38.2426 49.6043 38.1258 49.6245 38.0081 49.6245H24.8039C24.235 49.6245 23.7738 49.1635 23.7738 48.5945C23.7738 48.0256 24.235 47.5646 24.8039 47.5646H37.8301L51.4823 42.7053C55.7862 40.7371 58.4261 41.9902 59.4637 43.8246C60.5321 45.7138 59.9437 48.163 58.1244 49.4003C54.7581 51.6901 45.9604 54.8822 39.5365 57.2132C36.9744 58.1429 34.7616 58.9458 33.9713 59.3165C33.8343 59.3807 33.685 59.4139 33.5339 59.4139Z" fill="url(#paint1_linear_32171_22957)"/>
<path fill-rule="evenodd" clip-rule="evenodd" d="M11.9202 57.8969H1.02992C0.461048 57.8969 0 57.4358 0 56.8669V34.3874C0 33.8185 0.461048 33.3573 1.02992 33.3573H11.9202C12.4892 33.3573 12.9503 33.8183 12.9503 34.3874V56.8671C12.9503 57.4358 12.4892 57.8969 11.9202 57.8969ZM2.05996 55.837H10.8902V35.4171H2.05996V55.837Z" fill="url(#paint2_linear_32171_22957)"/>
<path fill-rule="evenodd" clip-rule="evenodd" d="M35.4924 33.5084C26.6914 33.5084 19.5312 26.3483 19.5312 17.5471C19.5312 8.74596 26.6915 1.58569 35.4924 1.58569C44.2935 1.58569 51.4538 8.74596 51.4538 17.5471C51.4538 26.3483 44.2935 33.5084 35.4924 33.5084ZM35.4924 3.64568C27.8273 3.64568 21.5912 9.88179 21.5912 17.5471C21.5912 25.2123 27.8273 31.4484 35.4924 31.4484C43.1576 31.4484 49.3938 25.2123 49.3938 17.5471C49.3938 9.88179 43.1576 3.64568 35.4924 3.64568Z" fill="url(#paint3_linear_32171_22957)"/>
<path fill-rule="evenodd" clip-rule="evenodd" d="M28.0925 25.9753C27.8288 25.9753 27.5654 25.8747 27.3642 25.6735C26.9619 25.2712 26.9619 24.6192 27.3642 24.217L42.1586 9.42264C42.5609 9.02028 43.2131 9.02055 43.6153 9.42264C44.0175 9.825 44.0175 10.4771 43.6153 10.8793L28.8209 25.6735C28.6197 25.8747 28.3562 25.9753 28.0925 25.9753Z" fill="url(#paint4_linear_32171_22957)"/>
<path fill-rule="evenodd" clip-rule="evenodd" d="M30.7652 16.4307C29.8406 16.4307 28.916 16.0788 28.2121 15.3748C26.8043 13.9669 26.8043 11.6763 28.2121 10.2686C28.894 9.5866 29.8008 9.21082 30.7652 9.21082C31.7297 9.21082 32.6364 9.5866 33.3183 10.2686C34.7261 11.6763 34.7261 13.9669 33.3183 15.3748C32.6145 16.0788 31.6901 16.4307 30.7652 16.4307ZM30.7652 11.2708C30.3509 11.2708 29.9616 11.4322 29.6687 11.725C29.064 12.3296 29.064 13.3134 29.6687 13.9182C30.2733 14.5227 31.2573 14.5229 31.8618 13.9182C32.4664 13.3136 32.4664 12.3298 31.8618 11.725C31.5688 11.4322 31.1795 11.2708 30.7652 11.2708Z" fill="url(#paint5_linear_32171_22957)"/>
<path fill-rule="evenodd" clip-rule="evenodd" d="M40.2201 25.8818C39.2955 25.8818 38.3709 25.5298 37.667 24.826C36.985 24.144 36.6094 23.2373 36.6094 22.2727C36.6094 21.3081 36.985 20.4014 37.667 19.7194C38.3489 19.0376 39.2558 18.662 40.2202 18.662C41.1845 18.662 42.0913 19.0376 42.7734 19.7196C44.1811 21.1274 44.1811 23.4181 42.7734 24.826C42.0694 25.5298 41.1447 25.8818 40.2201 25.8818ZM40.2202 20.7219C39.806 20.7219 39.4165 20.8833 39.1236 21.1762C38.8306 21.4691 38.6693 21.8584 38.6693 22.2727C38.6693 22.687 38.8306 23.0763 39.1236 23.3692C39.7282 23.9738 40.7121 23.9741 41.3167 23.3692C41.9213 22.7646 41.9214 21.7808 41.3167 21.1761C41.0239 20.8833 40.6344 20.7219 40.2202 20.7219Z" fill="url(#paint6_linear_32171_22957)"/>
<defs>
<linearGradient id="paint0_linear_32171_22957" x1="10.8906" y1="36.8124" x2="20.1556" y2="58.4729" gradientUnits="userSpaceOnUse">
<stop stop-color="#28A745"/>
<stop offset="1" stop-color="#CEF3D6"/>
</linearGradient>
<linearGradient id="paint1_linear_32171_22957" x1="10.9844" y1="41.7089" x2="22.2995" y2="73.0315" gradientUnits="userSpaceOnUse">
<stop stop-color="#28A745"/>
<stop offset="1" stop-color="#CEF3D6"/>
</linearGradient>
<linearGradient id="paint2_linear_32171_22957" x1="0" y1="33.3573" x2="20.2586" y2="44.0484" gradientUnits="userSpaceOnUse">
<stop stop-color="#28A745"/>
<stop offset="1" stop-color="#CEF3D6"/>
</linearGradient>
<linearGradient id="paint3_linear_32171_22957" x1="19.5312" y1="1.58569" x2="51.454" y2="33.5083" gradientUnits="userSpaceOnUse">
<stop stop-color="#28A745"/>
<stop offset="1" stop-color="#CEF3D6"/>
</linearGradient>
<linearGradient id="paint4_linear_32171_22957" x1="27.0625" y1="9.12097" x2="43.9169" y2="25.9754" gradientUnits="userSpaceOnUse">
<stop stop-color="#28A745"/>
<stop offset="1" stop-color="#CEF3D6"/>
</linearGradient>
<linearGradient id="paint5_linear_32171_22957" x1="27.1562" y1="9.21082" x2="34.3762" y2="16.4287" gradientUnits="userSpaceOnUse">
<stop stop-color="#28A745"/>
<stop offset="1" stop-color="#CEF3D6"/>
</linearGradient>
<linearGradient id="paint6_linear_32171_22957" x1="36.6094" y1="18.662" x2="43.8292" y2="25.8818" gradientUnits="userSpaceOnUse">
<stop stop-color="#28A745"/>
<stop offset="1" stop-color="#CEF3D6"/>
</linearGradient>
</defs>
</svg>
