<svg width="60" height="61" viewBox="0 0 60 61" fill="none" xmlns="http://www.w3.org/2000/svg">
<path d="M58.125 1.4375H39.375C38.8573 1.4375 38.4375 1.85727 38.4375 2.375V9.01437H21.5625V2.375C21.5625 1.85727 21.1427 1.4375 20.625 1.4375H1.875C1.35727 1.4375 0.9375 1.85727 0.9375 2.375V48.4899C0.9375 49.0077 1.35727 49.4274 1.875 49.4274H4.11785V58.625C4.11785 59.1427 4.53762 59.5625 5.05535 59.5625H28.068C28.5858 59.5625 29.0055 59.1427 29.0055 58.625V49.4274H30.9946V58.625C30.9946 59.1427 31.4143 59.5625 31.9321 59.5625H54.9448C55.4625 59.5625 55.8823 59.1427 55.8823 58.625V49.4274H58.125C58.6427 49.4274 59.0625 49.0077 59.0625 48.4899V2.375C59.0625 1.85727 58.6427 1.4375 58.125 1.4375ZM40.3125 41.3677C40.5485 41.5462 40.7944 41.7059 41.0494 41.8435C40.8034 41.8646 40.5578 41.8887 40.3125 41.9165V41.3677ZM49.6875 32.034H53.4768V35.8232H49.6875V32.034ZM53.4768 30.159H49.6875V26.3701H53.4768V30.159ZM53.4768 18.8302H49.6875V15.041H53.4768V18.8302ZM53.4768 20.7052V24.4951H49.6875V20.7052H53.4768ZM47.8125 18.8302H44.0232V15.041H47.8125V18.8302ZM44.0232 20.7052H47.8125V24.4951H44.0232V20.7052ZM47.8125 26.3701V29.9942C46.8743 29.0744 45.5869 28.5218 44.0232 28.4122V26.3701H47.8125ZM47.8125 40.1197V41.488H46.3992C46.9221 41.1201 47.3978 40.6579 47.8125 40.1197ZM49.6875 41.488V37.6982H53.4768V41.488H49.6875ZM53.4768 13.166H49.6875V9.37684H53.4768V13.166ZM47.8125 13.166H44.0232V9.37684H47.8125V13.166ZM43.4384 30.2656C44.4291 30.2656 45.8396 30.492 46.7571 31.6095C46.782 31.6475 46.8098 31.6831 46.8398 31.717C47.3429 32.383 47.6788 33.3411 47.6788 34.7163C47.6788 35.3543 47.6038 35.9682 47.4671 36.5437C47.4646 36.5544 47.4615 36.5648 47.4593 36.5756C46.896 38.9023 45.3069 40.5842 43.4384 40.5842C41.1002 40.5842 39.1979 37.952 39.1979 34.7164C39.1979 30.8437 41.8547 30.2656 43.4384 30.2656ZM38.4375 10.8894V30.7347C37.7156 31.7715 37.3229 33.12 37.3229 34.7164C37.3229 36.3712 37.7364 37.905 38.4375 39.1647V42.196C37.8381 42.3066 37.2409 42.4372 36.6462 42.5885V33.9911C36.6462 32.2745 35.1427 30.8778 33.2945 30.8778H26.7053C24.8571 30.8778 23.3536 32.2745 23.3536 33.9911V42.5889C22.7562 42.4421 22.159 42.3146 21.5623 42.206V39.1646C22.2634 37.9048 22.6768 36.3711 22.6768 34.7163C22.6768 33.12 22.2841 31.7715 21.5623 30.7346V10.8894H38.4375ZM31.0331 47.5523H28.9658C28.7304 45.6726 27.4161 44.155 25.2288 43.2077V33.9911C25.2288 33.3083 25.8912 32.7528 26.7055 32.7528H33.2947C34.1089 32.7528 34.7714 33.3083 34.7714 33.9911V43.215C32.5581 44.172 31.2635 45.6669 31.0331 47.5523ZM20.8021 34.7163C20.8021 37.9518 18.8999 40.5841 16.5616 40.5841C14.6932 40.5841 13.1043 38.9025 12.5408 36.5761C12.5382 36.5635 12.5347 36.5513 12.5317 36.5388C12.3957 35.9647 12.3212 35.3524 12.3212 34.7162C12.3212 33.3413 12.657 32.3832 13.1598 31.7172C13.19 31.6831 13.218 31.6473 13.2431 31.6089C14.1606 30.4917 15.5711 30.2654 16.5616 30.2654C18.1453 30.2656 20.8021 30.8437 20.8021 34.7163ZM12.1875 29.9942V26.3701H15.9768V28.4122C14.4131 28.5218 13.1257 29.0745 12.1875 29.9942ZM15.9768 18.8302H12.1875V15.041H15.9768V18.8302ZM15.9768 20.7052V24.4951H12.1875V20.7052H15.9768ZM10.3125 18.8302H6.52324V15.041H10.3125V18.8302ZM6.52324 20.7052H10.3125V24.4951H6.52324V20.7052ZM10.3125 26.3701V30.159H6.52324V26.3701H10.3125ZM6.52324 32.034H10.3125V35.8232H6.52324V32.034ZM13.6007 41.488H12.1875V40.1198C12.6022 40.6579 13.0779 41.1201 13.6007 41.488ZM15.9768 13.166H12.1875V9.37684H15.9768V13.166ZM10.3125 13.166H6.52324V9.37684H10.3125V13.166ZM6.52324 37.6982H10.3125V41.488H6.52324V37.6982ZM19.6875 41.3677V41.9275C19.4371 41.8987 19.1868 41.8733 18.9367 41.8512C19.1967 41.7119 19.4471 41.5495 19.6875 41.3677ZM2.8125 3.3125H19.6875V9.95187V29.0914C19.1401 28.8071 18.5258 28.6057 17.8518 28.494V25.4326V25.4322V8.43934C17.8518 7.9216 17.432 7.50184 16.9143 7.50184H5.58574C5.06801 7.50184 4.64824 7.9216 4.64824 8.43934V42.4256C4.64824 42.9433 5.06801 43.3631 5.58574 43.3631H7.56703C5.55328 44.3231 4.37531 45.7618 4.15641 47.5524H2.8125V3.3125ZM27.1304 57.6875H23.7769V50.5754C23.7769 50.0577 23.3571 49.6379 22.8394 49.6379C22.3216 49.6379 21.9019 50.0577 21.9019 50.5754V57.6875H11.2213V50.5754C11.2213 50.0577 10.8015 49.6379 10.2838 49.6379C9.76605 49.6379 9.34629 50.0577 9.34629 50.5754V57.6875H5.99285V48.1727C5.99285 45.9593 8.26125 44.9116 10.1644 44.4223C14.3327 43.3504 18.6401 43.3509 22.9669 44.4243C24.5218 44.81 27.1305 45.8098 27.1305 48.1727V57.6875H27.1304ZM54.0071 57.6875H50.6536V50.5754C50.6536 50.0577 50.2338 49.6379 49.7161 49.6379C49.1984 49.6379 48.7786 50.0577 48.7786 50.5754V57.6875H38.098V50.5754C38.098 50.0577 37.6782 49.6379 37.1605 49.6379C36.6428 49.6379 36.223 50.0577 36.223 50.5754V57.6875H32.8695V48.1727C32.8695 45.9593 35.1379 44.9116 37.0411 44.4223C41.2096 43.3503 45.5168 43.351 49.8435 44.4243C51.3984 44.81 54.0071 45.8098 54.0071 48.1727V57.6875ZM57.1875 47.5523H55.8424C55.6194 45.772 54.4287 44.3169 52.445 43.363H54.4143C54.932 43.363 55.3518 42.9432 55.3518 42.4255V8.43934C55.3518 7.9216 54.932 7.50184 54.4143 7.50184H43.0857C42.568 7.50184 42.1482 7.9216 42.1482 8.43934V28.494C41.4742 28.6057 40.8599 28.8071 40.3125 29.0914V9.95187V3.3125H57.1875V47.5523ZM24.3357 26.3448H35.6643C36.182 26.3448 36.6018 25.925 36.6018 25.4073V14.0789C36.6018 13.5611 36.182 13.1414 35.6643 13.1414H24.3357C23.818 13.1414 23.3982 13.5611 23.3982 14.0789V25.4073C23.3982 25.9249 23.818 26.3448 24.3357 26.3448ZM25.2732 20.6806H29.0625V24.4698H25.2732V20.6806ZM30.9375 24.4698V20.6806H34.7268V24.4698H30.9375ZM34.7268 18.8056H30.9375V15.0164H34.7268V18.8056ZM29.0625 15.0164V18.8056H25.2732V15.0164H29.0625Z" fill="url(#paint0_linear_32171_22914)"/>
<defs>
<linearGradient id="paint0_linear_32171_22914" x1="0.9375" y1="1.4375" x2="59.0625" y2="59.5625" gradientUnits="userSpaceOnUse">
<stop stop-color="#28A745"/>
<stop offset="1" stop-color="#CEF3D6"/>
</linearGradient>
</defs>
</svg>
