<svg width="60" height="61" viewBox="0 0 60 61" fill="none" xmlns="http://www.w3.org/2000/svg">
<path d="M17.9749 23.8415C20.572 23.8386 23.0619 22.8057 24.8983 20.9694C26.7348 19.1331 27.7679 16.6433 27.7711 14.0463C27.233 1.05086 8.71606 1.05368 8.17969 14.0463C8.18279 16.6432 9.21578 19.1329 11.0521 20.9692C12.8884 22.8055 15.378 23.8384 17.9749 23.8415ZM17.9749 6.12513C20.075 6.12742 22.0885 6.9627 23.5735 8.44771C25.0585 9.93271 25.8938 11.9462 25.8961 14.0463C25.498 24.5386 10.4514 24.5367 10.0547 14.0462C10.057 11.9462 10.8921 9.9329 12.3769 8.44793C13.8617 6.96296 15.875 6.1276 17.9749 6.12513Z" fill="url(#paint0_linear_32171_22943)"/>
<path d="M17.976 17.4094C16.7886 17.4094 15.9609 16.7704 15.9609 16.1964C15.9561 15.9509 15.8553 15.7171 15.68 15.5452C15.5047 15.3733 15.2689 15.277 15.0234 15.277C14.7779 15.277 14.5422 15.3733 14.3669 15.5452C14.1916 15.7171 14.0907 15.9509 14.0859 16.1964C14.1498 16.9619 14.4803 17.6807 15.0199 18.2274C15.5595 18.7741 16.2739 19.1141 17.0385 19.188V19.9518C17.0385 20.2005 17.1373 20.4389 17.3131 20.6147C17.4889 20.7905 17.7274 20.8893 17.976 20.8893C18.2246 20.8893 18.4631 20.7905 18.6389 20.6147C18.8147 20.4389 18.9135 20.2005 18.9135 19.9518V19.188C19.6782 19.1142 20.3928 18.7742 20.9325 18.2275C21.4723 17.6808 21.803 16.9619 21.867 16.1963C21.867 14.4651 20.1577 13.1091 17.976 13.1091C16.7886 13.1091 15.9609 12.4701 15.9609 11.896C16.0599 10.3107 19.893 10.3093 19.992 11.8961C19.9968 12.1416 20.0977 12.3754 20.273 12.5473C20.4483 12.7192 20.684 12.8154 20.9296 12.8154C21.1751 12.8154 21.4108 12.7191 21.5861 12.5472C21.7614 12.3752 21.8622 12.1414 21.867 11.896C21.803 11.1304 21.4723 10.4115 20.9325 9.86482C20.3927 9.31811 19.6782 8.97821 18.9135 8.90439V8.14063C18.9135 7.89198 18.8147 7.65353 18.6389 7.47771C18.4631 7.3019 18.2246 7.20312 17.976 7.20312C17.7274 7.20312 17.4889 7.3019 17.3131 7.47771C17.1373 7.65353 17.0385 7.89198 17.0385 8.14063V8.90446C12.5779 9.81396 13.4628 14.991 17.9761 14.9842C20.6214 15.0534 20.6206 17.3402 17.976 17.4094Z" fill="url(#paint1_linear_32171_22943)"/>
<path d="M9.72569 35.4855L8.70671 35.9844C8.48766 36.0963 8.3213 36.2897 8.24349 36.523C8.16567 36.7563 8.18263 37.0108 8.29071 37.2318C8.39879 37.4527 8.58933 37.6223 8.82129 37.7041C9.05324 37.7859 9.30804 37.7733 9.53078 37.669C22.0631 31.7169 33.236 23.2489 42.3542 12.7921V14.0457C42.3542 14.2943 42.4529 14.5328 42.6287 14.7086C42.8046 14.8844 43.043 14.9832 43.2917 14.9832C43.5403 14.9832 43.7788 14.8844 43.9546 14.7086C44.1304 14.5328 44.2292 14.2943 44.2292 14.0457V10.248C44.2188 10.0027 44.1168 9.7702 43.9431 9.59657C43.7695 9.42294 43.537 9.32086 43.2917 9.31055H39.495C39.2494 9.31508 39.0153 9.41585 38.8432 9.59118C38.6711 9.7665 38.5746 10.0024 38.5747 10.2481C38.5747 10.4938 38.6711 10.7296 38.8432 10.9049C39.0153 11.0803 39.2494 11.181 39.495 11.1855H41.2602C32.5034 21.3381 21.7748 29.6054 9.72569 35.4855Z" fill="url(#paint2_linear_32171_22943)"/>
<path d="M54.6819 54.8741H51.8227V21.6387C51.8228 21.5155 51.7986 21.3936 51.7515 21.2798C51.7044 21.166 51.6353 21.0627 51.5483 20.9756C51.4612 20.8885 51.3578 20.8195 51.244 20.7724C51.1303 20.7253 51.0083 20.7011 50.8852 20.7012H43.2918C43.1687 20.7011 43.0467 20.7253 42.933 20.7724C42.8192 20.8195 42.7158 20.8885 42.6287 20.9756C42.5417 21.0627 42.4726 21.166 42.4255 21.2798C42.3784 21.3936 42.3542 21.5155 42.3543 21.6387V54.8741H40.4308V29.233C40.4309 29.1098 40.4067 28.9879 40.3596 28.8741C40.3125 28.7603 40.2434 28.657 40.1564 28.5699C40.0693 28.4828 39.9659 28.4138 39.8521 28.3667C39.7384 28.3196 39.6164 28.2954 39.4933 28.2955H31.8999C31.7768 28.2954 31.6548 28.3196 31.541 28.3667C31.4273 28.4138 31.3239 28.4828 31.2368 28.5699C31.1498 28.657 31.0807 28.7603 31.0336 28.8741C30.9865 28.9879 30.9623 29.1098 30.9624 29.233V54.8741H29.0398V36.8263C29.0399 36.7032 29.0157 36.5813 28.9686 36.4675C28.9215 36.3537 28.8524 36.2503 28.7654 36.1633C28.6783 36.0762 28.5749 36.0071 28.4611 35.96C28.3474 35.913 28.2254 35.8888 28.1023 35.8888H20.5089C20.3858 35.8888 20.2638 35.913 20.1501 35.96C20.0363 36.0071 19.9329 36.0762 19.8458 36.1633C19.7588 36.2503 19.6897 36.3537 19.6426 36.4675C19.5955 36.5813 19.5713 36.7032 19.5714 36.8263V54.8741H17.6488V44.4207C17.6489 44.2975 17.6247 44.1756 17.5776 44.0618C17.5305 43.948 17.4614 43.8447 17.3744 43.7576C17.2873 43.6705 17.1839 43.6015 17.0702 43.5544C16.9564 43.5073 16.8344 43.4831 16.7113 43.4832H9.11792C8.99478 43.4831 8.87284 43.5073 8.75907 43.5544C8.6453 43.6015 8.54192 43.6705 8.45485 43.7576C8.36778 43.8447 8.29873 43.948 8.25164 44.0618C8.20455 44.1756 8.18035 44.2975 8.18042 44.4207V54.8741H5.32031C5.07167 54.8741 4.83322 54.9729 4.6574 55.1487C4.48158 55.3245 4.38281 55.563 4.38281 55.8116C4.38281 56.0603 4.48158 56.2987 4.6574 56.4746C4.83322 56.6504 5.07167 56.7491 5.32031 56.7491H54.6819C54.9272 56.7441 55.1608 56.6431 55.3325 56.4679C55.5042 56.2926 55.6004 56.057 55.6004 55.8116C55.6004 55.5663 55.5042 55.3307 55.3325 55.1554C55.1608 54.9802 54.9272 54.8792 54.6819 54.8741ZM10.0554 54.8741V45.3582H15.7738V54.8741H10.0554ZM21.4464 54.8741V37.7638H27.1648V54.8741H21.4464ZM32.8374 54.8741V30.1705H38.5558V54.8741H32.8374ZM44.2293 54.8741V22.5762H49.9477V54.8741H44.2293Z" fill="url(#paint3_linear_32171_22943)"/>
<defs>
<linearGradient id="paint0_linear_32171_22943" x1="8.17969" y1="4.30078" x2="27.7203" y2="23.8921" gradientUnits="userSpaceOnUse">
<stop stop-color="#28A745"/>
<stop offset="1" stop-color="#CEF3D6"/>
</linearGradient>
<linearGradient id="paint1_linear_32171_22943" x1="14.0859" y1="7.20312" x2="25.8466" y2="13.8895" gradientUnits="userSpaceOnUse">
<stop stop-color="#28A745"/>
<stop offset="1" stop-color="#CEF3D6"/>
</linearGradient>
<linearGradient id="paint2_linear_32171_22943" x1="8.19531" y1="9.31055" x2="35.8653" y2="44.3603" gradientUnits="userSpaceOnUse">
<stop stop-color="#28A745"/>
<stop offset="1" stop-color="#CEF3D6"/>
</linearGradient>
<linearGradient id="paint3_linear_32171_22943" x1="4.38281" y1="20.7012" x2="38.3161" y2="68.9142" gradientUnits="userSpaceOnUse">
<stop stop-color="#28A745"/>
<stop offset="1" stop-color="#CEF3D6"/>
</linearGradient>
</defs>
</svg>
