<svg width="60" height="61" viewBox="0 0 60 61" fill="none" xmlns="http://www.w3.org/2000/svg">
<g clip-path="url(#clip0_32171_22925)">
<path d="M53.535 4.26559H48.7031V2.25781C48.7031 1.28703 47.9161 0.5 46.9453 0.5C45.9745 0.5 45.1875 1.28703 45.1875 2.25781V4.26559H37.4062V2.25781C37.4062 1.28703 36.6192 0.5 35.6484 0.5C34.6777 0.5 33.8906 1.28703 33.8906 2.25781V4.26559H26.1094V2.25781C26.1094 1.28703 25.3223 0.5 24.3516 0.5C23.3808 0.5 22.5938 1.28703 22.5938 2.25781V4.26559H14.8125V2.25781C14.8125 1.28703 14.0255 0.5 13.0547 0.5C12.0839 0.5 11.2969 1.28703 11.2969 2.25781V4.26559H6.46477C2.90016 4.26559 0 7.16563 0 10.7305V54.0351C0 57.5998 2.90016 60.5 6.46477 60.5H53.535C57.0997 60.5 60 57.5998 60 54.0351V10.7305C60 7.16563 57.0997 4.26559 53.535 4.26559ZM6.46477 7.78121H11.2969V9.7891C11.2969 10.7599 12.0839 11.5469 13.0547 11.5469C14.0255 11.5469 14.8125 10.7599 14.8125 9.7891V7.78121H22.5935V9.7891C22.5935 10.7599 23.3805 11.5469 24.3513 11.5469C25.3221 11.5469 26.1091 10.7599 26.1091 9.7891V7.78121H33.8904V9.7891C33.8904 10.7599 34.6774 11.5469 35.6482 11.5469C36.619 11.5469 37.406 10.7599 37.406 9.7891V7.78121H45.1873V9.7891C45.1873 10.7599 45.9743 11.5469 46.9451 11.5469C47.9159 11.5469 48.7029 10.7599 48.7029 9.7891V7.78121H53.5348C55.1612 7.78121 56.4844 9.10426 56.4844 10.7305V15.5625H3.51562V10.7305C3.51562 9.10426 4.83867 7.78121 6.46477 7.78121ZM53.535 56.9844H6.46477C4.83867 56.9844 3.51562 55.6613 3.51562 54.0351V19.0781H56.4844V54.0351C56.4844 55.6613 55.1612 56.9844 53.535 56.9844Z" fill="url(#paint0_linear_32171_22925)"/>
<path d="M17.7579 24.9766H10.2266C9.25578 24.9766 8.46875 25.7637 8.46875 26.7344V34.2656C8.46875 35.2364 9.25578 36.0234 10.2266 36.0234H17.758C18.7288 36.0234 19.5158 35.2364 19.5158 34.2656V26.7344C19.5157 25.7637 18.7287 24.9766 17.7579 24.9766ZM16 32.5078H11.9843V28.4922H16V32.5078Z" fill="url(#paint1_linear_32171_22925)"/>
<path d="M49.7655 24.9766H42.2344C41.2636 24.9766 40.4766 25.7637 40.4766 26.7344V34.2656C40.4766 35.2364 41.2636 36.0234 42.2344 36.0234H49.7655C50.7363 36.0234 51.5234 35.2364 51.5234 34.2656V26.7344C51.5234 25.7637 50.7363 24.9766 49.7655 24.9766ZM48.0077 32.5078H43.9922V28.4922H48.0077V32.5078Z" fill="url(#paint2_linear_32171_22925)"/>
<path d="M17.7579 40.0389H10.2266C9.25578 40.0389 8.46875 40.8259 8.46875 41.7967V49.3279C8.46875 50.2986 9.25578 51.0857 10.2266 51.0857H17.758C18.7288 51.0857 19.5158 50.2986 19.5158 49.3279V41.7967C19.5157 40.8259 18.7287 40.0389 17.7579 40.0389ZM16 47.5701H11.9843V43.5545H16V47.5701Z" fill="url(#paint3_linear_32171_22925)"/>
<path d="M49.7655 40.0389H42.2344C41.2636 40.0389 40.4766 40.8259 40.4766 41.7967V49.3279C40.4766 50.2986 41.2636 51.0857 42.2344 51.0857H49.7655C50.7363 51.0857 51.5234 50.2986 51.5234 49.3279V41.7967C51.5234 40.8259 50.7363 40.0389 49.7655 40.0389ZM48.0077 47.5701H43.9922V43.5545H48.0077V47.5701Z" fill="url(#paint4_linear_32171_22925)"/>
<path d="M33.7658 40.0389H26.2344C25.2636 40.0389 24.4766 40.8259 24.4766 41.7967V49.3279C24.4766 50.2986 25.2636 51.0857 26.2344 51.0857H33.7658C34.7366 51.0857 35.5236 50.2986 35.5236 49.3279V41.7967C35.5236 40.8259 34.7366 40.0389 33.7658 40.0389ZM32.008 47.5701H27.9922V43.5545H32.008V47.5701Z" fill="url(#paint5_linear_32171_22925)"/>
<path d="M32.7527 26.5949L28.6706 30.6773L27.2508 29.2574C26.5644 28.571 25.4513 28.571 24.7649 29.2574C24.0784 29.9439 24.0784 31.0569 24.7649 31.7433L27.4277 34.4062C27.7574 34.7358 28.2044 34.9211 28.6706 34.9211C29.1369 34.9211 29.584 34.7358 29.9136 34.4062L35.2387 29.0808C35.9251 28.3944 35.9251 27.2814 35.2387 26.5949C34.5521 25.9085 33.4392 25.9085 32.7527 26.5949Z" fill="url(#paint6_linear_32171_22925)"/>
</g>
<defs>
<linearGradient id="paint0_linear_32171_22925" x1="0" y1="0.5" x2="60" y2="60.5" gradientUnits="userSpaceOnUse">
<stop stop-color="#28A745"/>
<stop offset="1" stop-color="#CEF3D6"/>
</linearGradient>
<linearGradient id="paint1_linear_32171_22925" x1="8.46875" y1="24.9766" x2="19.5155" y2="36.0237" gradientUnits="userSpaceOnUse">
<stop stop-color="#28A745"/>
<stop offset="1" stop-color="#CEF3D6"/>
</linearGradient>
<linearGradient id="paint2_linear_32171_22925" x1="40.4766" y1="24.9766" x2="51.5234" y2="36.0234" gradientUnits="userSpaceOnUse">
<stop stop-color="#28A745"/>
<stop offset="1" stop-color="#CEF3D6"/>
</linearGradient>
<linearGradient id="paint3_linear_32171_22925" x1="8.46875" y1="40.0389" x2="19.5155" y2="51.0859" gradientUnits="userSpaceOnUse">
<stop stop-color="#28A745"/>
<stop offset="1" stop-color="#CEF3D6"/>
</linearGradient>
<linearGradient id="paint4_linear_32171_22925" x1="40.4766" y1="40.0389" x2="51.5234" y2="51.0857" gradientUnits="userSpaceOnUse">
<stop stop-color="#28A745"/>
<stop offset="1" stop-color="#CEF3D6"/>
</linearGradient>
<linearGradient id="paint5_linear_32171_22925" x1="24.4766" y1="40.0389" x2="35.5234" y2="51.0859" gradientUnits="userSpaceOnUse">
<stop stop-color="#28A745"/>
<stop offset="1" stop-color="#CEF3D6"/>
</linearGradient>
<linearGradient id="paint6_linear_32171_22925" x1="24.25" y1="26.0801" x2="32.7933" y2="37.1962" gradientUnits="userSpaceOnUse">
<stop stop-color="#28A745"/>
<stop offset="1" stop-color="#CEF3D6"/>
</linearGradient>
<clipPath id="clip0_32171_22925">
<rect width="60" height="60" fill="white" transform="translate(0 0.5)"/>
</clipPath>
</defs>
</svg>
